<svg id="Layer_4"
     height="512"
     viewBox="0 0 100 100"
     width="512"
     xmlns="http://www.w3.org/2000/svg"
     data-name="Layer 4"
     fill="white">
  <path d="m80.68 43.28a6.19 6.19 0 0 0 -5.68-3.59h-13.59l6.59-26.76a6.26 6.26 0 0 0 -10.79-5.66l-37 42.73-.06.06a6.26 6.26 0 0 0 4.85 10.25h13.59l-6.59 26.76a6.22 6.22 0 0 0 3.18 7.18 6.3 6.3 0 0 0 2.9.71 6.11 6.11 0 0 0 4.74-2.23l37.06-42.8a6.21 6.21 0 0 0 .8-6.65zm-41.2 42.58 6.1-24.67a6.26 6.26 0 0 0 -6-7.88h-12.97l33.91-39.17-6.1 24.67a6.26 6.26 0 0 0 6 7.88h12.97z"/>
</svg>