<svg fill="white" enable-background="new 0 0 256 256" height="512" viewBox="0 0 256 256" width="512" xmlns="http://www.w3.org/2000/svg"><g id="Layer_2" display="none"><g display="inline"><g><path d="m255.729.271v255.459h-255.458v-255.459zm.2-.2h-255.858v255.859h255.859v-255.859z" fill="#01cd0d"/></g><g><path d="m128 .271c34.118 0 66.193 13.286 90.318 37.411s37.411 56.201 37.411 90.318-13.286 66.193-37.411 90.318-56.201 37.411-90.318 37.411-66.193-13.286-90.318-37.411c-24.125-24.125-37.411-56.2-37.411-90.318s13.286-66.193 37.411-90.318 56.2-37.411 90.318-37.411m0-.2c-70.653 0-127.929 57.276-127.929 127.929s57.276 127.929 127.929 127.929 127.929-57.276 127.929-127.929-57.276-127.929-127.929-127.929z" fill="#01cd0d"/></g><g><path d="m217.709 38.291v179.417h-179.418v-179.417zm.2-.2h-179.818v179.817h179.817v-179.817z" fill="rgb(0,0,0)"/></g><g><path d="m128 38.25c49.488 0 89.75 40.262 89.75 89.75s-40.262 89.75-89.75 89.75-89.75-40.262-89.75-89.75 40.262-89.75 89.75-89.75m0-.2c-49.678 0-89.95 40.272-89.95 89.95s40.272 89.95 89.95 89.95 89.95-40.272 89.95-89.95-40.272-89.95-89.95-89.95z" fill="rgb(0,0,0)"/></g><g><path d="m.071 255.929 255.858-255.858" fill="none" stroke="rgb(0,0,0)" stroke-miterlimit="10" stroke-width=".2"/></g><g><path d="m255.929 255.929-255.858-255.858" fill="none" stroke="rgb(0,0,0)" stroke-miterlimit="10" stroke-width=".2"/></g><g><path d="m177.773.271v255.459h-99.546v-255.459zm.2-.2h-99.946v255.859h99.945v-255.859z" fill="rgb(0,0,0)"/></g><g><path d="m255.729 78.228v99.545h-255.458v-99.545zm.2-.2h-255.858v99.945h255.859v-99.945z" fill="rgb(0,0,0)"/></g><path d="m128 .071v255.858" fill="none" stroke="rgb(0,0,0)" stroke-miterlimit="10" stroke-width=".2"/><path d="m.071 128h255.858" fill="none" stroke="rgb(0,0,0)" stroke-miterlimit="10" stroke-width=".2"/><g><path d="m128 103.214c13.667 0 24.786 11.119 24.786 24.786s-11.119 24.786-24.786 24.786-24.786-11.119-24.786-24.786 11.119-24.786 24.786-24.786m0-.2c-13.799 0-24.986 11.187-24.986 24.986s11.187 24.986 24.986 24.986 24.986-11.187 24.986-24.986-11.187-24.986-24.986-24.986z" fill="rgb(0,0,0)"/></g><g><path d="m128 78.228c27.445 0 49.772 22.328 49.772 49.772s-22.327 49.772-49.772 49.772-49.772-22.327-49.772-49.772 22.327-49.772 49.772-49.772m0-.2c-27.599 0-49.972 22.373-49.972 49.972s22.373 49.972 49.972 49.972 49.972-22.373 49.972-49.972-22.373-49.972-49.972-49.972z" fill="rgb(0,0,0)"/></g></g></g><g id="Layer_1"><g><path d="m175.417 225.159c-.255 0-.512-.024-.767-.074-1.217-.238-2.255-1.027-2.81-2.136l-36.088-72.12c-18.015 16.331-34.475 30.947-39.199 35.134v23.954c0 1.061-.421 2.078-1.172 2.829l-9.489 9.488c-.91.911-2.201 1.329-3.475 1.119-1.271-.208-2.364-1.016-2.937-2.169l-12.302-24.798-24.798-12.303c-1.154-.573-1.961-1.666-2.169-2.937s.208-2.564 1.119-3.476l9.489-9.489c.75-.75 1.768-1.171 2.829-1.171h23.954c4.187-4.725 18.802-21.185 35.133-39.199l-72.12-36.088c-1.109-.555-1.898-1.593-2.136-2.81s.103-2.476.921-3.408l8.93-10.162c.873-.994 2.179-1.495 3.495-1.329l98.446 12.153c6.625-7.29 12.871-13.941 17.513-18.885 3.927-4.182 7.029-7.485 8.441-9.128 12.48-14.518 24.91-13.394 36.484-10.019 1.312.382 2.337 1.408 2.72 2.72 3.375 11.574 4.498 24.004-10.019 36.484-1.644 1.413-4.95 4.517-9.135 8.447-4.943 4.641-11.591 10.884-18.879 17.507l12.154 98.446c.162 1.313-.335 2.622-1.33 3.495l-10.163 8.93c-.736.647-1.677.995-2.64.995zm-38.448-84.836c.244 0 .49.022.734.068 1.231.229 2.283 1.022 2.843 2.142l36.127 72.198 4.678-4.11-12.149-98.406c-.16-1.293.32-2.583 1.286-3.456 7.833-7.088 15.044-13.859 20.311-18.804 4.423-4.153 7.619-7.154 9.396-8.681 9.852-8.47 10.684-16.122 8.141-26.044-9.923-2.544-17.574-1.711-26.044 8.141-1.527 1.776-4.525 4.969-8.675 9.389-4.946 5.268-11.719 12.481-18.81 20.317-.874.966-2.162 1.448-3.456 1.286l-98.408-12.15-4.11 4.677 72.198 36.127c1.12.56 1.913 1.612 2.142 2.843s-.13 2.498-.973 3.425c-20.657 22.722-39.613 44.16-39.802 44.374-.759.859-1.851 1.351-2.997 1.351h-24.098l-4.38 4.38 21.017 10.427c.783.388 1.417 1.022 1.806 1.805l10.427 21.017 4.38-4.379v-24.098c0-1.146.492-2.238 1.351-2.997.214-.189 21.652-19.146 44.374-39.803.743-.674 1.704-1.039 2.691-1.039z"/></g></g></svg>