<svg id="&#x421;&#x43B;&#x43E;&#x439;_1" enable-background="new 0 0 12 12" viewBox="0 0 12 12" xmlns="http://www.w3.org/2000/svg"><g fill="white"><path d="m2.734375 3.2070313c-.1611328-.1279297-.3964844-.1025391-.5273437.0585937l-2 2.5c-.109375.1367188-.109375.3320313 0 .46875l2 2.5c.0742187.0927734.1835937.140625.2929687.140625.0820313 0 .1650391-.0273438.234375-.0820313.1611328-.1298828.1875-.3652344.0585938-.5273438l-1.8125-2.2656249 1.8125-2.265625c.1289062-.1621094.102539-.3974609-.0585938-.5273437z"/><path d="m7.6474609 2.1552734c-.1884765-.0820312-.4111328.0058594-.4921875.1972657l-3 7c-.0810546.1904297.006836.4101562.1972657.4921875.0478515.0205078.0976562.0302734.1474609.0302734.1455078 0 .2841797-.0849609.3447266-.2275391l3-7c.0810547-.1904296-.006836-.4101562-.1972657-.4921875z"/><path d="m11.7929688 5.765625-2-2.5c-.1298828-.1621094-.3662109-.1875-.5273438-.0585938-.1611328.1298828-.1875.3652344-.0585938.5273438l1.8125001 2.265625-1.8125 2.265625c-.1289063.1621094-.1025391.3974609.0585937.5273438.0693359.0546875.1523438.0820312.234375.0820312.109375 0 .21875-.0478516.2929688-.140625l2-2.5c.109375-.1367187.109375-.3320312 0-.46875z"/></g></svg>